<svg xmlns="http://www.w3.org/2000/svg" xmlns:xlink="http://www.w3.org/1999/xlink" width="500" zoomAndPan="magnify" viewBox="0 0 375 374.999991" height="500" preserveAspectRatio="xMidYMid meet" version="1.0"><defs><g/><clipPath id="ec9b3238df"><path d="M 71 13.621094 L 303 13.621094 L 303 250 L 71 250 Z M 71 13.621094 " clip-rule="nonzero"/></clipPath><clipPath id="775f122ea3"><path d="M 281.824219 121.027344 L 186.5625 13.621094 L 91.398438 121.039062 C 68.9375 146.390625 64.65625 185.535156 81.101562 216.101562 C 86.082031 225.363281 91.632812 233.28125 96.160156 239.128906 C 96.550781 239.628906 96.9375 240.121094 97.3125 240.597656 C 100.347656 244.429688 102.820312 247.210938 104.179688 248.695312 C 104.734375 249.300781 105.105469 249.6875 105.261719 249.847656 C 105.070312 249.617188 104.867188 249.378906 104.671875 249.148438 C 97.203125 240.050781 90.699219 224.796875 90.285156 213.214844 C 90.039062 206.296875 90.710938 199.433594 92.308594 192.882812 C 92.347656 192.703125 92.390625 192.53125 92.433594 192.355469 C 94.34375 184.738281 97.492188 177.550781 101.867188 171.148438 L 186.621094 47.019531 L 271.375 171.148438 C 275.839844 177.6875 279.027344 185.050781 280.917969 192.832031 C 282.519531 199.402344 283.199219 206.277344 282.953125 213.214844 C 282.53125 225.089844 275.703125 240.832031 267.992188 249.828125 C 267.972656 249.855469 267.949219 249.878906 267.929688 249.90625 C 267.960938 249.878906 268.007812 249.828125 268.070312 249.765625 C 268.863281 248.9375 272.382812 245.179688 276.972656 239.28125 C 276.972656 239.273438 276.972656 239.273438 276.980469 239.265625 C 281.691406 233.199219 287.523438 224.867188 292.679688 215.101562 C 308.703125 184.746094 304.035156 146.066406 281.824219 121.027344 Z M 281.824219 121.027344 " clip-rule="nonzero"/></clipPath><linearGradient x1="181.634" gradientTransform="matrix(0.635965, 0, 0, 0.63663, 71.149432, 13.62012)" y1="-0.000012578" x2="181.634" gradientUnits="userSpaceOnUse" y2="371.149976" id="2d4f960e07"><stop stop-opacity="1" stop-color="rgb(7.798767%, 59.999084%, 79.598999%)" offset="0"/><stop stop-opacity="1" stop-color="rgb(7.847595%, 60.180664%, 79.623413%)" offset="0.03125"/><stop stop-opacity="1" stop-color="rgb(7.931519%, 60.496521%, 79.667664%)" offset="0.0390625"/><stop stop-opacity="1" stop-color="rgb(8.003235%, 60.765076%, 79.704285%)" offset="0.046875"/><stop stop-opacity="1" stop-color="rgb(8.074951%, 61.035156%, 79.742432%)" offset="0.0546875"/><stop stop-opacity="1" stop-color="rgb(8.146667%, 61.305237%, 79.779053%)" offset="0.0625"/><stop stop-opacity="1" stop-color="rgb(8.21991%, 61.575317%, 79.815674%)" offset="0.0703125"/><stop stop-opacity="1" stop-color="rgb(8.291626%, 61.845398%, 79.853821%)" offset="0.078125"/><stop stop-opacity="1" stop-color="rgb(8.363342%, 62.113953%, 79.890442%)" offset="0.0859375"/><stop stop-opacity="1" stop-color="rgb(8.435059%, 62.384033%, 79.927063%)" offset="0.09375"/><stop stop-opacity="1" stop-color="rgb(8.506775%, 62.654114%, 79.96521%)" offset="0.101562"/><stop stop-opacity="1" stop-color="rgb(8.580017%, 62.924194%, 80.001831%)" offset="0.109375"/><stop stop-opacity="1" stop-color="rgb(8.651733%, 63.194275%, 80.039978%)" offset="0.117188"/><stop stop-opacity="1" stop-color="rgb(8.72345%, 63.46283%, 80.076599%)" offset="0.125"/><stop stop-opacity="1" stop-color="rgb(8.795166%, 63.73291%, 80.11322%)" offset="0.132812"/><stop stop-opacity="1" stop-color="rgb(8.866882%, 64.002991%, 80.151367%)" offset="0.140625"/><stop stop-opacity="1" stop-color="rgb(8.938599%, 64.273071%, 80.187988%)" offset="0.148438"/><stop stop-opacity="1" stop-color="rgb(9.011841%, 64.543152%, 80.224609%)" offset="0.15625"/><stop stop-opacity="1" stop-color="rgb(9.083557%, 64.813232%, 80.262756%)" offset="0.164062"/><stop stop-opacity="1" stop-color="rgb(9.155273%, 65.081787%, 80.299377%)" offset="0.171875"/><stop stop-opacity="1" stop-color="rgb(9.22699%, 65.351868%, 80.337524%)" offset="0.179688"/><stop stop-opacity="1" stop-color="rgb(9.298706%, 65.621948%, 80.374146%)" offset="0.1875"/><stop stop-opacity="1" stop-color="rgb(9.371948%, 65.892029%, 80.410767%)" offset="0.195312"/><stop stop-opacity="1" stop-color="rgb(9.443665%, 66.162109%, 80.448914%)" offset="0.203125"/><stop stop-opacity="1" stop-color="rgb(9.515381%, 66.430664%, 80.485535%)" offset="0.210938"/><stop stop-opacity="1" stop-color="rgb(9.587097%, 66.700745%, 80.522156%)" offset="0.21875"/><stop stop-opacity="1" stop-color="rgb(9.658813%, 66.970825%, 80.560303%)" offset="0.226562"/><stop stop-opacity="1" stop-color="rgb(9.73053%, 67.240906%, 80.596924%)" offset="0.234375"/><stop stop-opacity="1" stop-color="rgb(9.803772%, 67.510986%, 80.633545%)" offset="0.242188"/><stop stop-opacity="1" stop-color="rgb(9.875488%, 67.779541%, 80.671692%)" offset="0.25"/><stop stop-opacity="1" stop-color="rgb(9.947205%, 68.049622%, 80.708313%)" offset="0.257812"/><stop stop-opacity="1" stop-color="rgb(10.018921%, 68.319702%, 80.74646%)" offset="0.265625"/><stop stop-opacity="1" stop-color="rgb(10.090637%, 68.589783%, 80.783081%)" offset="0.273438"/><stop stop-opacity="1" stop-color="rgb(10.163879%, 68.859863%, 80.819702%)" offset="0.28125"/><stop stop-opacity="1" stop-color="rgb(10.235596%, 69.128418%, 80.857849%)" offset="0.289062"/><stop stop-opacity="1" stop-color="rgb(10.307312%, 69.398499%, 80.89447%)" offset="0.296875"/><stop stop-opacity="1" stop-color="rgb(10.379028%, 69.668579%, 80.931091%)" offset="0.304688"/><stop stop-opacity="1" stop-color="rgb(10.450745%, 69.93866%, 80.969238%)" offset="0.3125"/><stop stop-opacity="1" stop-color="rgb(10.522461%, 70.20874%, 81.005859%)" offset="0.320312"/><stop stop-opacity="1" stop-color="rgb(10.595703%, 70.477295%, 81.044006%)" offset="0.328125"/><stop stop-opacity="1" stop-color="rgb(10.667419%, 70.747375%, 81.080627%)" offset="0.335938"/><stop stop-opacity="1" stop-color="rgb(10.739136%, 71.017456%, 81.117249%)" offset="0.34375"/><stop stop-opacity="1" stop-color="rgb(10.810852%, 71.287537%, 81.155396%)" offset="0.351562"/><stop stop-opacity="1" stop-color="rgb(10.882568%, 71.557617%, 81.192017%)" offset="0.359375"/><stop stop-opacity="1" stop-color="rgb(10.955811%, 71.826172%, 81.228638%)" offset="0.367188"/><stop stop-opacity="1" stop-color="rgb(11.027527%, 72.096252%, 81.266785%)" offset="0.375"/><stop stop-opacity="1" stop-color="rgb(11.099243%, 72.366333%, 81.303406%)" offset="0.382812"/><stop stop-opacity="1" stop-color="rgb(11.170959%, 72.636414%, 81.341553%)" offset="0.390625"/><stop stop-opacity="1" stop-color="rgb(11.242676%, 72.906494%, 81.378174%)" offset="0.398438"/><stop stop-opacity="1" stop-color="rgb(11.314392%, 73.175049%, 81.414795%)" offset="0.40625"/><stop stop-opacity="1" stop-color="rgb(11.387634%, 73.445129%, 81.452942%)" offset="0.414062"/><stop stop-opacity="1" stop-color="rgb(11.459351%, 73.71521%, 81.489563%)" offset="0.421875"/><stop stop-opacity="1" stop-color="rgb(11.531067%, 73.985291%, 81.526184%)" offset="0.429688"/><stop stop-opacity="1" stop-color="rgb(11.602783%, 74.255371%, 81.564331%)" offset="0.4375"/><stop stop-opacity="1" stop-color="rgb(11.6745%, 74.523926%, 81.600952%)" offset="0.445312"/><stop stop-opacity="1" stop-color="rgb(11.747742%, 74.794006%, 81.637573%)" offset="0.453125"/><stop stop-opacity="1" stop-color="rgb(11.819458%, 75.064087%, 81.67572%)" offset="0.460938"/><stop stop-opacity="1" stop-color="rgb(11.891174%, 75.334167%, 81.712341%)" offset="0.46875"/><stop stop-opacity="1" stop-color="rgb(11.962891%, 75.604248%, 81.750488%)" offset="0.476562"/><stop stop-opacity="1" stop-color="rgb(12.034607%, 75.874329%, 81.787109%)" offset="0.484375"/><stop stop-opacity="1" stop-color="rgb(12.106323%, 76.142883%, 81.82373%)" offset="0.492188"/><stop stop-opacity="1" stop-color="rgb(12.179565%, 76.412964%, 81.861877%)" offset="0.5"/><stop stop-opacity="1" stop-color="rgb(12.251282%, 76.683044%, 81.898499%)" offset="0.507812"/><stop stop-opacity="1" stop-color="rgb(12.322998%, 76.953125%, 81.93512%)" offset="0.515625"/><stop stop-opacity="1" stop-color="rgb(12.394714%, 77.223206%, 81.973267%)" offset="0.523437"/><stop stop-opacity="1" stop-color="rgb(12.466431%, 77.49176%, 82.009888%)" offset="0.53125"/><stop stop-opacity="1" stop-color="rgb(12.539673%, 77.761841%, 82.048035%)" offset="0.539062"/><stop stop-opacity="1" stop-color="rgb(12.611389%, 78.031921%, 82.084656%)" offset="0.546875"/><stop stop-opacity="1" stop-color="rgb(12.683105%, 78.302002%, 82.121277%)" offset="0.554687"/><stop stop-opacity="1" stop-color="rgb(12.754822%, 78.572083%, 82.159424%)" offset="0.5625"/><stop stop-opacity="1" stop-color="rgb(12.826538%, 78.840637%, 82.196045%)" offset="0.570312"/><stop stop-opacity="1" stop-color="rgb(12.898254%, 79.110718%, 82.232666%)" offset="0.578125"/><stop stop-opacity="1" stop-color="rgb(12.971497%, 79.380798%, 82.270813%)" offset="0.585937"/><stop stop-opacity="1" stop-color="rgb(13.043213%, 79.650879%, 82.307434%)" offset="0.59375"/><stop stop-opacity="1" stop-color="rgb(13.114929%, 79.920959%, 82.344055%)" offset="0.601562"/><stop stop-opacity="1" stop-color="rgb(13.186646%, 80.189514%, 82.382202%)" offset="0.609375"/><stop stop-opacity="1" stop-color="rgb(13.258362%, 80.459595%, 82.418823%)" offset="0.617188"/><stop stop-opacity="1" stop-color="rgb(13.331604%, 80.729675%, 82.45697%)" offset="0.625"/><stop stop-opacity="1" stop-color="rgb(13.40332%, 80.999756%, 82.493591%)" offset="0.632812"/><stop stop-opacity="1" stop-color="rgb(13.475037%, 81.269836%, 82.530212%)" offset="0.640625"/><stop stop-opacity="1" stop-color="rgb(13.546753%, 81.538391%, 82.568359%)" offset="0.648437"/><stop stop-opacity="1" stop-color="rgb(13.618469%, 81.808472%, 82.60498%)" offset="0.65625"/><stop stop-opacity="1" stop-color="rgb(13.690186%, 82.078552%, 82.641602%)" offset="0.664062"/><stop stop-opacity="1" stop-color="rgb(13.763428%, 82.348633%, 82.679749%)" offset="0.671875"/><stop stop-opacity="1" stop-color="rgb(13.835144%, 82.618713%, 82.71637%)" offset="0.679687"/><stop stop-opacity="1" stop-color="rgb(13.90686%, 82.887268%, 82.754517%)" offset="0.6875"/><stop stop-opacity="1" stop-color="rgb(13.978577%, 83.157349%, 82.791138%)" offset="0.695312"/><stop stop-opacity="1" stop-color="rgb(14.050293%, 83.427429%, 82.827759%)" offset="0.703125"/><stop stop-opacity="1" stop-color="rgb(14.123535%, 83.69751%, 82.865906%)" offset="0.710937"/><stop stop-opacity="1" stop-color="rgb(14.195251%, 83.96759%, 82.902527%)" offset="0.71875"/><stop stop-opacity="1" stop-color="rgb(14.266968%, 84.236145%, 82.939148%)" offset="0.726562"/><stop stop-opacity="1" stop-color="rgb(14.338684%, 84.506226%, 82.977295%)" offset="0.734375"/><stop stop-opacity="1" stop-color="rgb(14.4104%, 84.776306%, 83.013916%)" offset="0.742188"/><stop stop-opacity="1" stop-color="rgb(14.482117%, 85.046387%, 83.050537%)" offset="0.75"/><stop stop-opacity="1" stop-color="rgb(14.555359%, 85.316467%, 83.088684%)" offset="0.757812"/><stop stop-opacity="1" stop-color="rgb(14.627075%, 85.586548%, 83.125305%)" offset="0.765625"/><stop stop-opacity="1" stop-color="rgb(14.698792%, 85.855103%, 83.163452%)" offset="0.773437"/><stop stop-opacity="1" stop-color="rgb(14.770508%, 86.125183%, 83.200073%)" offset="0.78125"/><stop stop-opacity="1" stop-color="rgb(14.842224%, 86.395264%, 83.236694%)" offset="0.789062"/><stop stop-opacity="1" stop-color="rgb(14.915466%, 86.665344%, 83.274841%)" offset="0.796875"/><stop stop-opacity="1" stop-color="rgb(14.987183%, 86.935425%, 83.311462%)" offset="0.804687"/><stop stop-opacity="1" stop-color="rgb(15.058899%, 87.203979%, 83.348083%)" offset="0.8125"/><stop stop-opacity="1" stop-color="rgb(15.130615%, 87.47406%, 83.38623%)" offset="0.820312"/><stop stop-opacity="1" stop-color="rgb(15.202332%, 87.744141%, 83.422852%)" offset="0.828125"/><stop stop-opacity="1" stop-color="rgb(15.275574%, 88.014221%, 83.460999%)" offset="0.835937"/><stop stop-opacity="1" stop-color="rgb(15.34729%, 88.284302%, 83.49762%)" offset="0.84375"/><stop stop-opacity="1" stop-color="rgb(15.419006%, 88.552856%, 83.534241%)" offset="0.851562"/><stop stop-opacity="1" stop-color="rgb(15.490723%, 88.822937%, 83.572388%)" offset="0.859375"/><stop stop-opacity="1" stop-color="rgb(15.562439%, 89.093018%, 83.609009%)" offset="0.867188"/><stop stop-opacity="1" stop-color="rgb(15.634155%, 89.363098%, 83.64563%)" offset="0.875"/><stop stop-opacity="1" stop-color="rgb(15.707397%, 89.633179%, 83.683777%)" offset="0.882812"/><stop stop-opacity="1" stop-color="rgb(15.779114%, 89.901733%, 83.720398%)" offset="0.890625"/><stop stop-opacity="1" stop-color="rgb(15.85083%, 90.171814%, 83.757019%)" offset="0.898437"/><stop stop-opacity="1" stop-color="rgb(15.922546%, 90.441895%, 83.795166%)" offset="0.90625"/><stop stop-opacity="1" stop-color="rgb(15.994263%, 90.711975%, 83.831787%)" offset="0.914062"/><stop stop-opacity="1" stop-color="rgb(16.067505%, 90.982056%, 83.869934%)" offset="0.921875"/><stop stop-opacity="1" stop-color="rgb(16.139221%, 91.25061%, 83.906555%)" offset="0.929687"/><stop stop-opacity="1" stop-color="rgb(16.210938%, 91.520691%, 83.943176%)" offset="0.9375"/><stop stop-opacity="1" stop-color="rgb(16.282654%, 91.790771%, 83.981323%)" offset="0.945312"/><stop stop-opacity="1" stop-color="rgb(16.35437%, 92.060852%, 84.017944%)" offset="0.953125"/><stop stop-opacity="1" stop-color="rgb(16.426086%, 92.330933%, 84.054565%)" offset="0.960937"/><stop stop-opacity="1" stop-color="rgb(16.499329%, 92.599487%, 84.092712%)" offset="0.96875"/><stop stop-opacity="1" stop-color="rgb(16.571045%, 92.869568%, 84.129333%)" offset="0.976562"/><stop stop-opacity="1" stop-color="rgb(16.642761%, 93.139648%, 84.16748%)" offset="0.984375"/><stop stop-opacity="1" stop-color="rgb(16.714478%, 93.409729%, 84.204102%)" offset="0.992188"/><stop stop-opacity="1" stop-color="rgb(16.786194%, 93.67981%, 84.240723%)" offset="1"/></linearGradient></defs><path fill="#1499cb" d="M 281.265625 190.960938 C 281.265625 190.960938 281.191406 191.648438 280.917969 192.824219 C 279.328125 199.789062 270.945312 223.925781 231.152344 224.414062 C 216.519531 224.59375 201 224.664062 186.609375 224.667969 C 172.21875 224.664062 156.699219 224.59375 142.066406 224.414062 C 102.367188 223.925781 93.929688 199.90625 92.308594 192.875 C 92.261719 192.691406 92.226562 192.511719 92.195312 192.347656 C 92.007812 191.460938 91.953125 190.953125 91.953125 190.953125 C 87.066406 213.152344 89.871094 228.5 96.160156 239.121094 C 96.550781 239.625 96.9375 240.113281 97.3125 240.589844 C 100.347656 244.425781 102.820312 247.207031 104.179688 248.6875 C 104.734375 249.292969 105.105469 249.683594 105.261719 249.839844 C 105.28125 249.859375 105.300781 249.878906 105.3125 249.898438 C 121.300781 263.371094 143.636719 262.894531 143.636719 262.894531 L 229.582031 262.894531 C 229.582031 262.894531 252.003906 263.371094 267.992188 249.824219 C 268.019531 249.804688 268.042969 249.777344 268.070312 249.757812 C 268.863281 248.929688 272.382812 245.175781 276.972656 239.273438 C 276.972656 239.265625 276.972656 239.265625 276.980469 239.261719 C 283.320312 228.640625 286.167969 213.253906 281.265625 190.960938 Z M 281.265625 190.960938 " fill-opacity="1" fill-rule="nonzero"/><g clip-path="url(#ec9b3238df)"><g clip-path="url(#775f122ea3)"><path fill="url(#2d4f960e07)" d="M 64.65625 13.621094 L 64.65625 249.90625 L 308.703125 249.90625 L 308.703125 13.621094 Z M 64.65625 13.621094 " fill-rule="nonzero"/></g></g><path fill="#1499cb" d="M 173.984375 115.722656 L 199.265625 115.722656 L 199.265625 194.398438 L 173.984375 194.398438 Z M 173.984375 115.722656 " fill-opacity="1" fill-rule="nonzero"/><path fill="#1499cb" d="M 147.324219 167.710938 L 147.324219 142.402344 L 225.917969 142.402344 L 225.917969 167.710938 Z M 147.324219 167.710938 " fill-opacity="1" fill-rule="nonzero"/><g fill="#ffffff" fill-opacity="1"><g transform="translate(76.663015, 333.759031)"><g><path d="M 20.046875 0.96875 C 16.953125 0.96875 14.046875 0.0976562 11.328125 -1.640625 C 8.609375 -3.390625 6.4375 -5.796875 4.8125 -8.859375 C 3.195312 -11.929688 2.390625 -15.335938 2.390625 -19.078125 C 2.390625 -22.816406 3.195312 -26.21875 4.8125 -29.28125 C 6.4375 -32.351562 8.609375 -34.757812 11.328125 -36.5 C 14.046875 -38.25 16.953125 -39.125 20.046875 -39.125 C 21.691406 -39.125 23.222656 -38.863281 24.640625 -38.34375 C 26.066406 -37.820312 27.238281 -37.234375 28.15625 -36.578125 C 29.082031 -35.929688 29.695312 -35.359375 30 -34.859375 L 30.375 -34.859375 L 30.375 -52.375 L 40.546875 -52.375 L 40.546875 0 L 32.921875 0 L 31.265625 -3.734375 L 30.890625 -3.734375 C 30.046875 -2.691406 28.675781 -1.644531 26.78125 -0.59375 C 24.882812 0.445312 22.640625 0.96875 20.046875 0.96875 Z M 21.46875 -8.453125 C 23.0625 -8.453125 24.53125 -8.898438 25.875 -9.796875 C 27.226562 -10.691406 28.316406 -11.953125 29.140625 -13.578125 C 29.960938 -15.203125 30.375 -17.035156 30.375 -19.078125 C 30.375 -21.117188 29.960938 -22.945312 29.140625 -24.5625 C 28.316406 -26.1875 27.226562 -27.445312 25.875 -28.34375 C 24.53125 -29.25 23.0625 -29.703125 21.46875 -29.703125 C 19.875 -29.703125 18.398438 -29.25 17.046875 -28.34375 C 15.703125 -27.445312 14.617188 -26.1875 13.796875 -24.5625 C 12.972656 -22.945312 12.5625 -21.117188 12.5625 -19.078125 C 12.5625 -17.035156 12.972656 -15.203125 13.796875 -13.578125 C 14.617188 -11.953125 15.703125 -10.691406 17.046875 -9.796875 C 18.398438 -8.898438 19.875 -8.453125 21.46875 -8.453125 Z M 21.46875 -8.453125 "/></g></g></g><g fill="#ffffff" fill-opacity="1"><g transform="translate(117.884365, 333.759031)"><g><path d="M 14.59375 0 L 4.40625 0 L 4.40625 -38.15625 L 14.59375 -38.15625 Z M 9.0625 -43.015625 C 7.46875 -43.015625 6.125 -43.5625 5.03125 -44.65625 C 3.9375 -45.757812 3.390625 -47.109375 3.390625 -48.703125 C 3.390625 -50.296875 3.9375 -51.640625 5.03125 -52.734375 C 6.125 -53.835938 7.46875 -54.390625 9.0625 -54.390625 C 10.664062 -54.390625 12.015625 -53.835938 13.109375 -52.734375 C 14.203125 -51.640625 14.75 -50.296875 14.75 -48.703125 C 14.75 -47.109375 14.203125 -45.757812 13.109375 -44.65625 C 12.015625 -43.5625 10.664062 -43.015625 9.0625 -43.015625 Z M 9.0625 -43.015625 "/></g></g></g><g fill="#ffffff" fill-opacity="1"><g transform="translate(132.771705, 333.759031)"><g><path d="M 28.28125 -38.15625 L 38.75 -38.15625 L 23.484375 1.125 C 21.691406 5.757812 19.769531 9.035156 17.71875 10.953125 C 15.675781 12.878906 13.257812 13.84375 10.46875 13.84375 C 8.820312 13.84375 7.226562 13.566406 5.6875 13.015625 L 5.6875 3.734375 C 6.382812 4.085938 7.304688 4.265625 8.453125 4.265625 C 10.046875 4.265625 11.328125 3.925781 12.296875 3.25 C 13.273438 2.582031 14.0625 1.398438 14.65625 -0.296875 L 14.890625 -1.046875 L 0 -38.15625 L 11 -38.15625 L 19.90625 -13.3125 Z M 28.28125 -38.15625 "/></g></g></g><g fill="#ffffff" fill-opacity="1"><g transform="translate(167.409541, 333.759031)"><g><path d="M 19.375 -39.125 C 24.3125 -39.125 28.203125 -37.640625 31.046875 -34.671875 C 33.890625 -31.703125 35.3125 -27.75 35.3125 -22.8125 L 35.3125 0 L 27.6875 0 L 26.03125 -3.734375 L 25.65625 -3.734375 C 22.664062 -0.597656 19.050781 0.96875 14.8125 0.96875 C 12.414062 0.96875 10.234375 0.472656 8.265625 -0.515625 C 6.296875 -1.515625 4.75 -2.882812 3.625 -4.625 C 2.5 -6.375 1.9375 -8.300781 1.9375 -10.40625 C 1.9375 -13 2.707031 -15.253906 4.25 -17.171875 C 5.800781 -19.085938 7.960938 -20.554688 10.734375 -21.578125 C 13.503906 -22.597656 16.6875 -23.109375 20.28125 -23.109375 L 25.140625 -23.109375 L 25.140625 -23.859375 C 25.140625 -25.804688 24.613281 -27.328125 23.5625 -28.421875 C 22.519531 -29.523438 21.097656 -30.078125 19.296875 -30.078125 C 17.753906 -30.078125 16.519531 -29.664062 15.59375 -28.84375 C 14.675781 -28.019531 14.117188 -27.132812 13.921875 -26.1875 L 3.734375 -26.1875 C 3.941406 -28.425781 4.65625 -30.53125 5.875 -32.5 C 7.09375 -34.476562 8.847656 -36.078125 11.140625 -37.296875 C 13.441406 -38.515625 16.1875 -39.125 19.375 -39.125 Z M 17.203125 -7.328125 C 19.546875 -7.328125 21.453125 -8.023438 22.921875 -9.421875 C 24.398438 -10.816406 25.140625 -12.460938 25.140625 -14.359375 L 25.140625 -16.3125 L 19.96875 -16.3125 C 17.226562 -16.3125 15.234375 -15.875 13.984375 -15 C 12.742188 -14.125 12.125 -12.914062 12.125 -11.375 C 12.125 -10.175781 12.554688 -9.203125 13.421875 -8.453125 C 14.296875 -7.703125 15.554688 -7.328125 17.203125 -7.328125 Z M 17.203125 -7.328125 "/></g></g></g><g fill="#ffffff" fill-opacity="1"><g transform="translate(202.645886, 333.759031)"><g><path d="M 25.28125 0.96875 C 22.6875 0.96875 20.441406 0.445312 18.546875 -0.59375 C 16.648438 -1.644531 15.28125 -2.691406 14.4375 -3.734375 L 14.0625 -3.734375 L 12.421875 0 L 4.78125 0 L 4.78125 -52.375 L 14.96875 -52.375 L 14.96875 -34.859375 L 15.34375 -34.859375 C 15.632812 -35.359375 16.238281 -35.929688 17.15625 -36.578125 C 18.082031 -37.234375 19.253906 -37.820312 20.671875 -38.34375 C 22.097656 -38.863281 23.632812 -39.125 25.28125 -39.125 C 28.375 -39.125 31.28125 -38.25 34 -36.5 C 36.71875 -34.757812 38.882812 -32.351562 40.5 -29.28125 C 42.125 -26.21875 42.9375 -22.816406 42.9375 -19.078125 C 42.9375 -15.335938 42.125 -11.929688 40.5 -8.859375 C 38.882812 -5.796875 36.71875 -3.390625 34 -1.640625 C 31.28125 0.0976562 28.375 0.96875 25.28125 0.96875 Z M 23.859375 -8.453125 C 25.460938 -8.453125 26.9375 -8.898438 28.28125 -9.796875 C 29.625 -10.691406 30.707031 -11.953125 31.53125 -13.578125 C 32.351562 -15.203125 32.765625 -17.035156 32.765625 -19.078125 C 32.765625 -21.117188 32.351562 -22.945312 31.53125 -24.5625 C 30.707031 -26.1875 29.625 -27.445312 28.28125 -28.34375 C 26.9375 -29.25 25.460938 -29.703125 23.859375 -29.703125 C 22.265625 -29.703125 20.796875 -29.25 19.453125 -28.34375 C 18.109375 -27.445312 17.023438 -26.1875 16.203125 -24.5625 C 15.378906 -22.945312 14.96875 -21.117188 14.96875 -19.078125 C 14.96875 -17.035156 15.378906 -15.203125 16.203125 -13.578125 C 17.023438 -11.953125 18.109375 -10.691406 19.453125 -9.796875 C 20.796875 -8.898438 22.265625 -8.453125 23.859375 -8.453125 Z M 23.859375 -8.453125 "/></g></g></g><g fill="#ffffff" fill-opacity="1"><g transform="translate(243.867238, 333.759031)"><g><path d="M 40.546875 -19.671875 C 40.546875 -17.828125 40.394531 -16.40625 40.09375 -15.40625 L 12.640625 -15.40625 C 13.191406 -13.113281 14.273438 -11.316406 15.890625 -10.015625 C 17.515625 -8.722656 19.472656 -8.078125 21.765625 -8.078125 C 24.554688 -8.078125 26.828125 -9.023438 28.578125 -10.921875 L 39.28125 -10.921875 C 38.53125 -9.078125 37.34375 -7.234375 35.71875 -5.390625 C 34.101562 -3.546875 32.097656 -2.023438 29.703125 -0.828125 C 27.304688 0.367188 24.710938 0.96875 21.921875 0.96875 C 18.378906 0.96875 15.109375 0.0703125 12.109375 -1.71875 C 9.117188 -3.507812 6.75 -5.9375 5 -9 C 3.257812 -12.070312 2.390625 -15.429688 2.390625 -19.078125 C 2.390625 -22.617188 3.273438 -25.9375 5.046875 -29.03125 C 6.816406 -32.125 9.195312 -34.578125 12.1875 -36.390625 C 15.1875 -38.210938 18.378906 -39.125 21.765625 -39.125 C 25.210938 -39.125 28.367188 -38.273438 31.234375 -36.578125 C 34.097656 -34.890625 36.363281 -32.5625 38.03125 -29.59375 C 39.707031 -26.625 40.546875 -23.316406 40.546875 -19.671875 Z M 21.765625 -30.078125 C 19.578125 -30.078125 17.660156 -29.414062 16.015625 -28.09375 C 14.367188 -26.769531 13.242188 -24.960938 12.640625 -22.671875 L 30.75 -22.671875 C 30.144531 -24.910156 29.03125 -26.703125 27.40625 -28.046875 C 25.789062 -29.398438 23.910156 -30.078125 21.765625 -30.078125 Z M 21.765625 -30.078125 "/></g></g></g><g fill="#ffffff" fill-opacity="1"><g transform="translate(282.694579, 333.759031)"><g><path d="M 19.90625 0.96875 C 16.113281 0.96875 13.019531 -0.273438 10.625 -2.765625 C 8.226562 -5.265625 7.03125 -8.65625 7.03125 -12.9375 L 7.03125 -29.109375 L 1.125 -29.109375 L 1.125 -37.40625 L 3.734375 -37.40625 C 5.179688 -37.40625 6.300781 -37.789062 7.09375 -38.5625 C 7.894531 -39.332031 8.296875 -40.441406 8.296875 -41.890625 L 8.296875 -47.734375 L 17.203125 -47.734375 L 17.203125 -38.15625 L 25.0625 -38.15625 L 25.0625 -29.109375 L 17.203125 -29.109375 L 17.203125 -13.984375 C 17.203125 -12.191406 17.660156 -10.847656 18.578125 -9.953125 C 19.503906 -9.054688 20.789062 -8.609375 22.4375 -8.609375 C 23.488281 -8.609375 24.363281 -8.78125 25.0625 -9.125 L 25.0625 0.15625 C 23.519531 0.695312 21.800781 0.96875 19.90625 0.96875 Z M 19.90625 0.96875 "/></g></g></g><g fill="#ffffff" fill-opacity="1"><g transform="translate(160.856519, 360.449948)"><g><path d="M 1.421875 0 L 1.421875 -12.234375 L 3.859375 -12.234375 L 4.390625 -11.046875 L 4.515625 -11.046875 C 4.765625 -11.359375 5.1875 -11.6875 5.78125 -12.03125 C 6.375 -12.375 7.0625 -12.546875 7.84375 -12.546875 C 8.820312 -12.546875 9.679688 -12.328125 10.421875 -11.890625 C 11.171875 -11.453125 11.753906 -10.828125 12.171875 -10.015625 C 12.585938 -9.210938 12.796875 -8.28125 12.796875 -7.21875 L 12.796875 0 L 9.53125 0 L 9.53125 -6.9375 C 9.53125 -7.65625 9.296875 -8.265625 8.828125 -8.765625 C 8.367188 -9.273438 7.796875 -9.53125 7.109375 -9.53125 C 6.398438 -9.53125 5.816406 -9.28125 5.359375 -8.78125 C 4.910156 -8.289062 4.6875 -7.675781 4.6875 -6.9375 L 4.6875 0 Z M 1.421875 0 "/></g></g></g><g fill="#ffffff" fill-opacity="1"><g transform="translate(173.617632, 360.449948)"><g><path d="M 13.015625 -6.3125 C 13.015625 -5.71875 12.960938 -5.257812 12.859375 -4.9375 L 4.0625 -4.9375 C 4.226562 -4.207031 4.570312 -3.632812 5.09375 -3.21875 C 5.613281 -2.800781 6.242188 -2.59375 6.984375 -2.59375 C 7.878906 -2.59375 8.609375 -2.894531 9.171875 -3.5 L 12.59375 -3.5 C 12.351562 -2.90625 11.972656 -2.3125 11.453125 -1.71875 C 10.941406 -1.132812 10.300781 -0.648438 9.53125 -0.265625 C 8.757812 0.117188 7.925781 0.3125 7.03125 0.3125 C 5.894531 0.3125 4.847656 0.0234375 3.890625 -0.546875 C 2.929688 -1.128906 2.171875 -1.910156 1.609375 -2.890625 C 1.046875 -3.878906 0.765625 -4.957031 0.765625 -6.125 C 0.765625 -7.257812 1.046875 -8.320312 1.609375 -9.3125 C 2.179688 -10.300781 2.945312 -11.085938 3.90625 -11.671875 C 4.875 -12.253906 5.898438 -12.546875 6.984375 -12.546875 C 8.085938 -12.546875 9.097656 -12.273438 10.015625 -11.734375 C 10.941406 -11.191406 11.671875 -10.441406 12.203125 -9.484375 C 12.742188 -8.535156 13.015625 -7.476562 13.015625 -6.3125 Z M 6.984375 -9.640625 C 6.273438 -9.640625 5.65625 -9.425781 5.125 -9 C 4.601562 -8.582031 4.25 -8.003906 4.0625 -7.265625 L 9.859375 -7.265625 C 9.671875 -7.992188 9.316406 -8.570312 8.796875 -9 C 8.273438 -9.425781 7.671875 -9.640625 6.984375 -9.640625 Z M 6.984375 -9.640625 "/></g></g></g><g fill="#ffffff" fill-opacity="1"><g transform="translate(186.066904, 360.449948)"><g><path d="M 6.390625 0.3125 C 5.171875 0.3125 4.175781 -0.0859375 3.40625 -0.890625 C 2.632812 -1.691406 2.25 -2.78125 2.25 -4.15625 L 2.25 -9.34375 L 0.359375 -9.34375 L 0.359375 -12 L 1.203125 -12 C 1.660156 -12 2.015625 -12.125 2.265625 -12.375 C 2.523438 -12.625 2.65625 -12.976562 2.65625 -13.4375 L 2.65625 -15.3125 L 5.515625 -15.3125 L 5.515625 -12.234375 L 8.046875 -12.234375 L 8.046875 -9.34375 L 5.515625 -9.34375 L 5.515625 -4.484375 C 5.515625 -3.910156 5.660156 -3.476562 5.953125 -3.1875 C 6.253906 -2.90625 6.671875 -2.765625 7.203125 -2.765625 C 7.535156 -2.765625 7.816406 -2.816406 8.046875 -2.921875 L 8.046875 0.046875 C 7.546875 0.222656 6.992188 0.3125 6.390625 0.3125 Z M 6.390625 0.3125 "/></g></g></g><g fill="#ffffff" fill-opacity="1"><g transform="translate(193.622568, 360.449948)"><g><path d="M 2.765625 0.3125 C 2.210938 0.3125 1.753906 0.128906 1.390625 -0.234375 C 1.023438 -0.609375 0.84375 -1.066406 0.84375 -1.609375 C 0.84375 -2.148438 1.023438 -2.601562 1.390625 -2.96875 C 1.753906 -3.34375 2.210938 -3.53125 2.765625 -3.53125 C 3.304688 -3.53125 3.757812 -3.34375 4.125 -2.96875 C 4.5 -2.601562 4.6875 -2.148438 4.6875 -1.609375 C 4.6875 -1.066406 4.5 -0.609375 4.125 -0.234375 C 3.757812 0.128906 3.304688 0.3125 2.765625 0.3125 Z M 2.765625 0.3125 "/></g></g></g><g fill="#ffffff" fill-opacity="1"><g transform="translate(197.819883, 360.449948)"><g><path d="M 6.390625 0.3125 C 5.171875 0.3125 4.175781 -0.0859375 3.40625 -0.890625 C 2.632812 -1.691406 2.25 -2.78125 2.25 -4.15625 L 2.25 -9.34375 L 0.359375 -9.34375 L 0.359375 -12 L 1.203125 -12 C 1.660156 -12 2.015625 -12.125 2.265625 -12.375 C 2.523438 -12.625 2.65625 -12.976562 2.65625 -13.4375 L 2.65625 -15.3125 L 5.515625 -15.3125 L 5.515625 -12.234375 L 8.046875 -12.234375 L 8.046875 -9.34375 L 5.515625 -9.34375 L 5.515625 -4.484375 C 5.515625 -3.910156 5.660156 -3.476562 5.953125 -3.1875 C 6.253906 -2.90625 6.671875 -2.765625 7.203125 -2.765625 C 7.535156 -2.765625 7.816406 -2.816406 8.046875 -2.921875 L 8.046875 0.046875 C 7.546875 0.222656 6.992188 0.3125 6.390625 0.3125 Z M 6.390625 0.3125 "/></g></g></g><g fill="#ffffff" fill-opacity="1"><g transform="translate(205.375546, 360.449948)"><g><path d="M 1.421875 0 L 1.421875 -12.234375 L 3.859375 -12.234375 L 4.390625 -11.046875 L 4.515625 -11.046875 C 4.753906 -11.359375 5.117188 -11.6875 5.609375 -12.03125 C 6.097656 -12.375 6.6875 -12.546875 7.375 -12.546875 C 7.800781 -12.546875 8.164062 -12.507812 8.46875 -12.4375 L 8.46875 -9.171875 C 8.164062 -9.242188 7.757812 -9.28125 7.25 -9.28125 C 6.46875 -9.28125 5.84375 -9.046875 5.375 -8.578125 C 4.914062 -8.109375 4.6875 -7.457031 4.6875 -6.625 L 4.6875 0 Z M 1.421875 0 "/></g></g></g></svg>